<svg xmlns="http://www.w3.org/2000/svg" version="1.1" width="600px" height="600px" viewBox="0 0 200 200" style="overflow:hidden!important;"><defs id="SvgjsDefs3072"><linearGradient id="SvgjsLinearGradient6974" x1="80.0429" y1="88.1094" x2="80.0429" y2="107.7139" gradientUnits="userSpaceOnUse" class="svga-on-canvas-glasses-gradient-single-0-null"><stop id="SvgjsStop6975" stop-opacity="1" stop-color="#bfeaf2" offset="0" ></stop><stop id="SvgjsStop6976" stop-opacity="0.649" stop-color="#a1cae3" offset="0.351" ></stop><stop id="SvgjsStop6977" stop-opacity="0" stop-color="#6086c4" offset="1" ></stop></linearGradient><linearGradient id="SvgjsLinearGradient6979" x1="-19.9571" y1="88.1094" x2="-19.9571" y2="107.7139" gradientTransform="matrix(-1 0 0 1 100 0)" gradientUnits="userSpaceOnUse" class="svga-on-canvas-glasses-gradient-single-1-null"><stop id="SvgjsStop6980" stop-opacity="1" stop-color="#bfeaf2" offset="0" ></stop><stop id="SvgjsStop6981" stop-opacity="0.649" stop-color="#a1cae3" offset="0.351" ></stop><stop id="SvgjsStop6982" stop-opacity="0" stop-color="#6086c4" offset="1" ></stop></linearGradient><linearGradient id="SvgjsLinearGradient7035" x1="80.6974" y1="83.7641" x2="80.6974" y2="106.8942" gradientUnits="userSpaceOnUse" class="svga-on-canvas-glasses-gradient-single-0-null"><stop id="SvgjsStop7036" stop-opacity="1" stop-color="#000000" offset="0" ></stop><stop id="SvgjsStop7037" stop-opacity="0" stop-color="#000000" offset="1" ></stop></linearGradient><linearGradient id="SvgjsLinearGradient7039" x1="-19.3026" y1="83.7641" x2="-19.3026" y2="106.8942" gradientTransform="matrix(-1 0 0 1 100 0)" gradientUnits="userSpaceOnUse" class="svga-on-canvas-glasses-gradient-single-1-null"><stop id="SvgjsStop7040" stop-opacity="1" stop-color="#000000" offset="0" ></stop><stop id="SvgjsStop7041" stop-opacity="0" stop-color="#000000" offset="1" ></stop></linearGradient><linearGradient id="SvgjsLinearGradient7089" x1="81.2337" y1="115.9179" x2="81.2337" y2="93.5216" gradientTransform="matrix(1 0 0 -1 0 202)" gradientUnits="userSpaceOnUse" class="svga-on-canvas-glasses-gradient-single-0-null"><stop id="SvgjsStop7090" stop-opacity="1" stop-color="#3d2d1c" offset="0.0208" ></stop><stop id="SvgjsStop7091" stop-opacity="0.6291" stop-color="#402e1c" offset="0.3825" ></stop><stop id="SvgjsStop7092" stop-opacity="0.3897" stop-color="#48321d" offset="0.6159" ></stop><stop id="SvgjsStop7093" stop-opacity="0.1881" stop-color="#57381f" offset="0.8124" ></stop><stop id="SvgjsStop7094" stop-opacity="7.593334e-03" stop-color="#6c4221" offset="0.9884" ></stop><stop id="SvgjsStop7095" stop-opacity="0" stop-color="#6d4221" offset="0.9958" ></stop></linearGradient><linearGradient id="SvgjsLinearGradient7097" x1="-1736.7662" y1="115.9179" x2="-1736.7662" y2="93.5216" gradientTransform="matrix(-1 0 0 -1 -1618 202)" gradientUnits="userSpaceOnUse" class="svga-on-canvas-glasses-gradient-single-1-null"><stop id="SvgjsStop7098" stop-opacity="1" stop-color="#3d2d1c" offset="0.0208" ></stop><stop id="SvgjsStop7099" stop-opacity="0.6291" stop-color="#402e1c" offset="0.3825" ></stop><stop id="SvgjsStop7100" stop-opacity="0.3897" stop-color="#48321d" offset="0.6159" ></stop><stop id="SvgjsStop7101" stop-opacity="0.1881" stop-color="#57381f" offset="0.8124" ></stop><stop id="SvgjsStop7102" stop-opacity="7.593334e-03" stop-color="#6c4221" offset="0.9884" ></stop><stop id="SvgjsStop7103" stop-opacity="0" stop-color="#6d4221" offset="0.9958" ></stop></linearGradient></defs><g id="svga-group-wrapper"><g id="svga-group-backs-single"><path id="SvgjsPath3520" d="M0 0h200v200H0V0z" fill="#ecf0f1" stroke-width="none" opacity="1" stroke="none"></path></g><g id="svga-group-humanwrap-move" transform="matrix(1,0,0,1,0,0)"><g id="svga-group-humanwrap" transform="matrix(1,0,0,1,0,0)"><g id="svga-group-hair-back-move" transform="matrix(1,0,0,1,0,0)"><g id="svga-group-hair-back" transform="matrix(1,0,0,1,0,0)"></g></g><g id="svga-group-humanbody-back"><path id="SvgjsPath3473" d="M166.5 181.1c-10.9-6.6-27.6-8.4-35-12.1-4.9-2.5-9.1-4.7-8.9-17.8s1.9-42.4 1.9-42.4H75.4s1.6 29.4 1.9 42.4-4.2 15.6-8.9 17.8c-7.4 3.5-24.1 5.4-35 12.1-10.8 6.6-10 18.9-10 18.9v19.7h153.3V200c-.1 0 .7-12.3-10.2-18.9z" fill="#f0c7b1" stroke-width="none" opacity="1" stroke="none"></path></g><g id="svga-group-chinshadow-single"><path id="SvgjsPath3849" d="M93 163.2c2.6 1.6 11.4 1.6 14 .1 4.5-2.5 10.6-9.1 15.6-14 .3-13.8 1.9-40.5 1.9-40.5H75.4s1.4 26.5 1.8 40.3c5.1 4.9 11.2 11.6 15.8 14.1z" fill="#d19271" stroke-width="none" opacity="0.65" stroke="none"></path></g><g id="svga-group-humanbody-front"><path id="SvgjsPath3474" d="M78.7 156.8c.5 4.8 1.7 9.4 3.1 13.9.8 2.3 1.6 4.6 2.6 6.9.8 2 1.7 4.2 3.1 5.9.3.4 1 0 .9-.5-.5-2.2-1.6-4.3-2.4-6.4-.9-2.2-1.7-4.4-2.5-6.6-1.5-4.4-2.8-8.9-4.1-13.3-.2-.4-.8-.3-.7.1zm41.3-1c-1.3 8.2-3.9 16.1-5.4 24.2-.1.4.4.5.6.2 3.1-7.7 4.1-16.1 5.1-24.3-.1-.2-.3-.2-.3-.1zm-25.8 11.9c-.9 3.6 1.9 8.6 6.2 7.6.5-.1.4-.8 0-1-1.4-.5-2.9-.9-3.9-2.1-1.1-1.2-1.5-2.9-1.4-4.5 0-.4-.8-.5-.9 0z" fill="#d19271" stroke-width="none" opacity="1" stroke="none"></path><path id="SvgjsPath3475" d="M177.3 219.7c-.1-6.6-.3-13.1-.3-19.7l-.3-.3c.1 0 .1 0 .2.1s.1.2.1.1v-1.4c0-.5-.1-.9-.1-1.4-.1-.9-.3-1.9-.5-2.8-.5-1.8-1.1-3.6-2-5.3-1.7-3.4-4.4-6.2-7.7-8.1-3.6-2.2-7.6-3.8-11.6-5.1-4-1.3-8.1-2.4-12.1-3.5-4-1.2-8.1-2.2-11.8-4.2-1.9-1-3.6-2.1-4.8-3.6-1.2-1.6-1.9-3.5-2.3-5.5-.8-4-.4-8.2-.3-12.4l.7-12.6 1.5-25.2.1-1.4h-1.4c-8.2 0-16.4 0-24.6.1l-24.6.3h-.9l.1.9c.8 11.9 1.6 23.8 2.1 35.7.1 3 .3 6 .2 8.9-.1 2.9-.4 5.9-1.6 8.6-.6 1.3-1.4 2.5-2.4 3.5s-2.3 1.8-3.6 2.4c-2.6 1.3-5.4 2.2-8.3 3-5.8 1.5-11.6 2.8-17.3 4.7-2.8.9-5.7 2-8.4 3.4-1.3.7-2.7 1.4-4 2.4-1.3.9-2.4 1.9-3.5 3.1-2.1 2.3-3.6 5.2-4.5 8.1-.5 1.5-.8 3-1 4.6-.1.8-.1 1.6-.1 2.4v2.3l-.2 17.9v1.3h1.4l38.3.2c12.8.1 25.5.1 38.3 0 12.8-.1 25.6-.1 38.3-.3 12.8-.2 25.6-.5 38.3-.7h.6v-.5zm-77.2-1.6H61.8l-37 .2-.1-16.6v-2.2c0-.7 0-1.4.1-2.1.1-1.4.4-2.8.8-4.2.8-2.7 2.1-5.3 3.9-7.5.9-1.1 2-2.1 3.1-2.9 1.1-.9 2.4-1.6 3.7-2.3 2.6-1.4 5.3-2.5 8.1-3.5 5.6-2 11.4-3.4 17.1-5.1 2.9-.8 5.8-1.7 8.5-3.1 1.3-.7 2.7-1.5 3.8-2.6 1.1-1.1 2-2.4 2.6-3.9 1.2-2.9 1.5-5.9 1.6-8.9 0-3-.1-6-.2-9l-1.3-34.8 23.5.4c7.7.1 15.4.1 23.1.1-.4 7.9-.8 15.9-1.1 23.8-.2 4.2-.2 8.4-.3 12.6 0 4.2-.2 8.5.8 12.8.5 2.1 1.3 4.2 2.8 6 1.4 1.7 3.4 2.9 5.3 3.8 3.9 1.9 8 2.8 12.1 3.8s8.2 2 12.2 3.3c4 1.3 7.9 2.8 11.5 5 3.2 1.9 5.8 4.7 7.5 8 .9 1.6 1.5 3.4 1.9 5.2.2.9.4 1.8.4 2.7.1.5.1.9.1 1.4V200l-.3 19c-12.6-.2-25.1-.5-37.7-.7-12.7-.1-25.5-.1-38.2-.2z" fill="#c27b55" stroke-width="none" opacity="1" stroke="none"></path></g><g id="svga-group-clothes-single"><path id="SvgjsPath8219" d="M100.8 184.4c-1.1-3-8.2-7.8-13.2-10.6s-7-4.9-10-8.8c-1.8-3.6-1-8.9-1-8.9-.1-4.7-.6-9.5-.9-14.7-8.2-1.1-13.1 3.7-14 4.6-6.5 6.3-3.1 8.5-5.7 11.5-9.2 2.1-7.1 14.2-10.7 15-8.7 1.9-21.2 7-24.2 21 0 0-1.6 9.2-1.6 26.7h160.7c0-17.5-1.6-26.7-1.6-26.7-3.2-15.2-17.6-19-26.1-21.4-1.4-.6.2-5.2-2.5-10.5-1.4-2.7-3.9-6.5-9.3-7.8 0 0-1.2-6.6-5.4-9.9-4.2-3.3-11.2-2.5-11.2-2.5s-.3 14.1-.3 16.1c0 3.2-.2 4.9-1.6 6.6s-4.4 3.9-6.9 7.5-10.1 7.5-11.7 9c-1.4 1.4-2.8 3.8-2.8 3.8z" fill="#386e77" stroke-width="none" opacity="1"></path><path id="SvgjsPath8220" d="M105.6 187.4c-.6.6-1.7 3.4-1.8 5.7s1.8 11.5 2.1 13.4-1 7.4-1 8.5 2.8 2.8 3.1 1.7c.3-1.1 1.2-8.4.2-10.9s-2.2-10.1-2.2-11.6 1.1-5.6 1.6-6.5c0 0 .2-.8-.6-.9-.8-.1-1.4.6-1.4.6z" fill="#d6d6d6" stroke-width="none" opacity="1"></path><path id="SvgjsPath8221" d="m95.6 186.8.1-.2s1.8-1.3 1.9.9c0 0-1.2 2.8-1.2 4.8s2.2 11.9 2.5 14.1-2.7 10.4-3.1 10.5-2.1-.9-2.6-1.3c-.4-.4 2.5-6.9 2.8-9.9.3-2.9-.4-8.7-1.2-12.2-.8-3.5.4-5.9.8-6.6v-.1z" fill="#d6d6d6" stroke-width="none" opacity="1"></path><path id="SvgjsPath8222" d="M181.4 204.3c-.2-2.6-.4-5.2-.7-7.9l-.2-2-.1-1v-.3c0-.1 0-.2-.1-.3l-.1-.5c-.3-1.4-.7-2.7-1.2-4-1.1-2.6-2.6-5-4.4-7.1-1.9-2.1-4.1-3.8-6.5-5.2-4.6-2.7-9.6-4.2-14.5-5.5v-.1c-.1-.4-.1-.9-.1-1.4-.1-1-.1-2-.3-3.1-.3-2.1-1.1-4.2-2.1-6-1-1.8-2.4-3.6-4.1-4.9-1.5-1.2-3.2-2-5-2.6-.4-1.4-.8-2.8-1.4-4.1-.7-1.6-1.6-3.1-2.9-4.4-1.3-1.4-3.4-2.5-5-3-5.1-1.2-8.6-.4-8.6-.4s-1.2 9.6-2.9 22.5c0 0-3.9 4.9-5.3 6.8-.4.4-.7 1-1.1 1.4-.2.2-.3.4-.5.6l-.6.6c-.8.8-1.7 1.5-2.6 2.2-1.8 1.4-3.8 2.7-5.7 4-.5.3-1 .7-1.4 1.1-.5.4-.8.9-1.2 1.3-.4.5-.7.9-1 1.4l-.5.8-.2.4-.1.1-.2-.3-.3-.6c-.2-.4-.5-.7-.8-1l-1.8-1.8c-1.3-1.1-2.6-2.2-4-3.2s-2.8-1.9-4.2-2.8c-1.4-.9-2.9-1.7-4.2-2.7-2.7-2-4.5-4.6-6.6-7.1-1.1-1.3-1.7-3.5-1.9-4.9-.1-1 .6-10.8-.2-17.9 0-.4-.7-.9-5.6-1.1-5 .1-8.8 3.3-10.4 4.9-1.5 1.6-3.1 3.3-3.9 5.6-.4 1.1-.5 2.4-.7 3.4-.1.9-.3 1.4-.7 1.9-1.7.4-3.3 1.3-4.5 2.5-1.4 1.4-2.3 3-2.9 4.7-.7 1.7-1.1 3.4-1.5 4.9-.2.8-.5 1.5-.8 2.1-.1.3-.3.4-.4.5 0 0-.1 0-.1.1l-.6.1c-3.3.8-6.6 1.9-9.8 3.4-3.1 1.6-6 3.6-8.4 6.2-2.4 2.6-4.2 5.7-5.3 9-.3.8-.5 1.7-.7 2.5l-.1.7c0 .1 0 .2-.1.4v.3l-.2 1.3c-.2 1.7-.3 3.4-.5 5-.5 6.7-.6 13.4-.5 20.1 0 .4.1 1.3.5 1.3 13.4-.2 160.9.2 160.9.2.8 0 1.5-.7 1.5-1.5-.1-5-.2-10.3-.6-15.6zm-27.8-33.4zm-28.8-26.1c1 .6 4.7 2.5 6 5.1.1.8.2 1.8 0 2.6s-.6 1.5-1.1 2.3c-2.1 2.6-6.1 6.3-6.5 6.8 5.1-8.8 1.6-16.8 1.6-16.8zm-50.4 17.7c.9 1.4 4 4.3 5 5.5-.4-.3-3.9-3-4.3-3.2-1.2-.8-1.8-1.7-2.7-2.9-1.8-2.2-2.7-5.1-3.4-8-.3-1.4-.6-2.9.3-3.8 2.2-1.5 5.9-2 6.1-2.1.2 2.7-3.2 5.8-3.1 8.5-.1.3-.1.4-.1.7v.8c.1.5.2 1 .3 1.4.3.7 1.4 2.3 1.9 3.1zM48 171.8c.5-.9.8-1.8 1-2.6.5-1.7.8-3.2 1.4-4.7.5-1.5 1.3-2.8 2.3-3.8s2.3-1.7 3.7-2c.2 0 .3-.1.5-.2.1 1.1.2 2.2.4 3.3.3 1.7.7 3.4 1.4 5 .3.9.8 1.6 1.2 2.4.5.7 1 1.5 1.5 2.2 2.3 2.8 5.1 4.8 8.2 6.4 3.1 1.6 6.3 2.8 9.7 3.4-3.1-1.4-6.1-3-8.9-4.8-1.4-.9-2.8-1.8-4-2.9-1.3-1.1-2.5-2.2-3.4-3.4-.5-.6-1-1.3-1.4-1.9-.4-.7-.8-1.4-1.1-2.1-.7-1.4-1.1-3.1-1.6-4.6-.4-1.4-.7-2.9-.9-4.3.1-.2-.8-5.1 4.4-9.9 1.4-1.5 3-2.8 4.6-3.8 4.2-2.4 6.8-1.4 8.1-1.2.1 2 .2 3.1.3 5.1-.3.1-4.2 1-4.5 1.1-.7.3-1.5.5-2.2 1.1-.7.5-1.1 1.5-1.2 2.3-.1.9 0 1.7.1 2.5.4 3.1 1.3 6.3 3.3 8.9 1 1.3 2.3 2.4 3.6 3.2l3.9 2.4c1.3.8 2.6 1.5 3.9 2.2.8.6 1.5 1.2 2.3 1.7 1.4 1 2.9 1.8 4.4 2.6 1.4.8 2.9 1.7 4.3 2.6s2.8 1.9 4.1 2.9c.7.5 1.3 1.1 1.9 1.7.3.3.6.6.8.9.1.2.2.3.3.5l.2.3c.1.1.2.3.3.4 0 0 .1 0 .2-.1v-.1l.1-.1.1-.2.2-.4.5-.7c.3-.5.7-.9 1.1-1.4.4-.4.8-.9 1.2-1.2.4-.3.9-.7 1.4-1 2-1.2 4-2.4 5.9-3.8 1-.7 1.9-1.4 2.8-2.2.2-.2.4-.4.7-.6.2-.2.4-.4.6-.7.4-.5.7-.9 1.1-1.4 1.5-1.7 3.2-3.3 4.9-4.9l2.6-2.4c.7-.7 3.2-2.8 3.6-3.2 1.5-1.3 2.8-2.7 3.8-4.5 1-1.8.9-4 .2-6.1-1.1-2.4-5.6-5-6.9-5.8l-.1-2.5c.2.1 4.4-.9 8.1 1.4 2.5 1.6 4.6 5.3 5.3 6.7.6 1.4 1.1 2.9 1.4 4.4.1.5.5.9 1 1.1.1 0 .1 0 .2.1-.2 2-.6 4-1.4 5.8-.6 1.5-1.3 2.9-2.3 4-1 1.2-2.2 2.3-3.4 3.3-.6.5-1.2 1-1.8 1.6l-1.9 1.5c-1.3 1-2.6 2-3.9 2.9-2.6 1.9-5.3 3.8-7.9 5.8 3.1-1.3 6-2.8 8.8-4.5 2.8-1.7 5.6-3.6 8.1-5.8.6-.6 1.3-1.1 1.8-1.7l.9-.9.8-1c1.1-1.4 1.8-3 2.3-4.7.6-2 .8-4 .7-6.1 1.4.5 2.6 1.1 3.7 2.1 1.4 1.1 2.4 2.6 3.3 4.2.9 1.6 1.5 3.3 1.7 5.1.1.9.2 1.8.2 2.8 0 .5 0 1 .1 1.6 0 .3.1.6.2 1.1.1.2.2.5.4.7l.1.1-1.4 1.4c-.9.8-1.9 1.6-2.8 2.4-1.9 1.6-3.9 3.1-5.9 4.5-2 1.4-4 2.9-6.1 4-1.1.6-2.1 1.1-3.2 1.5-1.1.4-2.3.8-3.5 1.1-2.4.7-4.8 1.3-7.2 1.8-2.4.6-4.8 1.1-7.2 1.5l-3.6.6c-.6.1-1.2.1-1.7.1-.6 0-1.1-.2-1.6-.4l-.2-.1c.3-1.1.6-2.3 1-3.3.1-.2 0-.5-.1-.7s-.4-.3-.7-.3c-.5 0-.9.3-1.2.6.3-.4.8-.6 1.2-.6.2 0 .5.1.6.3.1.2.2.4.1.7-.5 1.2-.8 2.4-1.2 3.7-.3 1.2-.6 2.6-.4 3.9.2 2.6.6 5.1 1.1 7.7.1.6.3 1.3.4 1.9l.3.9c.1.3.2.6.2.9.2 1.2.2 2.5.2 3.8-.1 1.3-.2 2.6-.3 3.8-.1.6-.2 1.3-.3 1.9 0 .1-.1.3-.1.4-.1 0-.4 0-.6-.1-.5-.2-1-.6-1.3-1-.1-.1-.1-.2-.2-.3v-.3c0-.3.1-.6.1-.9.2-1.3.4-2.5.6-3.8.1-.6.2-1.3.2-1.9 0-.6 0-1.4-.1-2l-.8-3.8c-.5-2.5-1.1-5.1-1.4-7.6-.1-.6-.1-1.3-.1-1.9 0-.5.1-.9.2-1.4 0 0 .1-.4.1-.5.2-.6.3-1.2.6-1.9-.2.6-.4 1.2-.6 1.9 0 .1-.1.3-.1.4-1-.6-2.1-.9-3.3-1.1-1.3-.2-2.5-.3-3.8-.5.2-.8.4-1.5.7-2.2 0-.2-.1-.5-.2-.7s-.2-.4-.5-.6c-.5-.2-1 0-1.4.3.4-.2.9-.4 1.3-.2s.5.8.5 1.2c-.5 1.2-1 2.4-1.2 3.8-.1.6-.2 1.4-.1 2 .1.7.2 1.3.3 2 .4 2.6.9 5.2 1.4 7.8l.3 1.9c.1.6.2 1.3.2 1.9-.1 1.2-.4 2.5-.8 3.7-.4 1.2-.8 2.5-1.2 3.7-.2.6-.5 1.2-.7 1.8-.1.1-.1.2-.2.4-.2-.1-.4-.1-.7-.3-.3-.1-.6-.3-.8-.5-.1-.1-.2-.2-.4-.3l-.1-.1c0-.2.1-.5.2-.8l.3-.9 1.3-3.7c.4-1.3.8-2.5 1-3.9.2-1.4.1-2.7 0-4-.2-2.6-.7-5.2-1.2-7.8-.6-1.8-.6-3.9-.1-5.7h.1s0-.1-.1-.1c.2-.6.4-1.2.7-1.8-.3.5-.6 1.1-.8 1.7-.5-.6-.8-1.4-.6-1.9.2-.6.8-1 1.6-.9.7 0 1.4.4 2 .9.3.3.5.6.6 1 .1.3-.1.7-.5 1 .2 0 .5-.1.7-.3s.3-.5.3-.7c0-.5-.2-1-.5-1.4-.6-.8-1.5-1.4-2.5-1.5-.5 0-1.1.1-1.6.4s-.8.8-.8 1.4c-.1 1.1.6 1.8 1.4 2.2-.1.4-.2.7-.3 1.1l-5.5-.7c-2.6-.4-5.2-.6-7.8-1-2.6-.4-5.2-.8-7.7-1.3-1.3-.2-2.5-.5-3.7-.9-1.2-.3-2.4-.9-3.6-1.4-2.4-1-4.7-2.3-6.9-3.5-2.3-1.3-4.5-2.6-6.7-4-1.1-.7-2.2-1.4-3.2-2.2l-1.5-1.2-.6-.6c-.1-1 .1-1.3.3-1.6zm52 47.5-20.1.2-20.1.1c-13.2.1-26.3 0-39.5-.2.1-6.4.4-12.9 1.1-19.3.2-1.6.4-3.3.6-4.9l.2-1.2v-.3c0-.1 0-.2.1-.3l.1-.6c.2-.8.4-1.5.7-2.3 1.1-3 2.8-5.7 5-8s4.9-4.1 7.8-5.5c2.9-1.4 6-2.5 9.1-3.2l.6-.1c.4-.1.7-.2 1-.5.2-.1.3-.2.4-.4.5.8 1.2 1.4 1.9 2.1 1 .9 2 1.8 3 2.6 2.1 1.6 4.2 3.1 6.5 4.6 2.2 1.4 4.5 2.7 6.9 3.9 1.2.6 2.4 1.1 3.8 1.5 1.3.4 2.6.7 3.9 1 5.2 1 10.4 1.6 15.7 1.9 2.2.1 3.4.2 5.5.2-.1 1.2 0 2.5.2 3.7.5 2.6.8 5.2.9 7.8.1 1.3.1 2.6-.1 3.9-.2 1.2-.6 2.5-1 3.7l-1.3 3.7c-.1.3-.2.6-.3 1-.1.3-.2.6-.2 1.1v.3c0 .1.1.2.1.2l.1.1c.1.1.2.1.2.2.1.1.3.2.4.3.3.2.6.4.9.5.3.2.6.3 1.1.4h.4c.2-.1.2-.1.3-.2.1-.1.2-.2.2-.3.1-.2.2-.3.2-.5.3-.6.5-1.2.7-1.9.4-1.2.8-2.5 1.2-3.8.3-1.3.7-2.6.8-4 0-.8-.2-1.4-.3-2-.1-.6-.2-1.3-.4-1.9-.5-2.6-1.1-5.1-1.6-7.7-.1-.6-.2-1.3-.3-1.9-.1-.6-.1-1.3 0-1.9 0-.2.1-.4.1-.6 2.4.1 4.9-.1 7.2.7-.1.5-.2.9-.2 1.4-.1.6 0 1.3.1 1.9.3 2.6.7 5.1 1.1 7.7l.6 3.8c.2 1.2-.1 2.5-.3 3.7l-.7 3.8c-.1.3-.1.6-.1 1 0 .1 0 .5.1.7.1.2.2.4.3.5.5.6 1.1 1 1.7 1.3.3.1.7.3 1.3.2.3-.1.6-.4.7-.6.1-.2.1-.4.1-.5.1-.7.2-1.3.3-2 .2-1.3.2-2.6.3-3.9 0-1.3 0-2.6-.3-3.9-.1-.3-.2-.7-.3-1l-.3-.9c-.2-.6-.4-1.2-.5-1.9-.6-2.5-1.1-5-1.5-7.6-.2-1-.1-2.1.2-3.1.6.3 1.3.5 1.9.6.3.1.7.1 1 .1h1c1.3 0 2.5-.2 3.8-.3 5-.6 9.9-1.6 14.7-2.9 1.2-.4 2.4-.7 3.6-1.2 1.2-.4 2.4-1 3.5-1.7 2.2-1.3 4.2-2.8 6.1-4.4 1.9-1.6 3.8-3.2 5.6-5 .9-.9 1.8-1.8 2.6-2.8.4-.5.8-1 1.2-1.6.2.1.4.3.6.4.1 0 .1.1.2.1 5 1.4 9.9 2.9 14.2 5.5 4.3 2.5 7.7 6.2 9.6 10.7.4 1.1.8 2.3 1.1 3.5l.1.4v.4l.1.9.2 1.9c.3 2.6.5 5.1.7 7.7.3 4.7.5 9.4.5 14.1l-38.6.2c-13.2.2-26.6.4-40 .6zm4.7-30.4c-.3-.4-.4-.8-.4-1.1 0-.4.1-.7.3-1 .4-.5 1.2-.7 1.9-.6.7.1 1.5.5 1.8 1.1.2.3.2.6.1 1s-.4.7-.7 1.1c.4-.1.8-.4 1.1-.9.3-.4.3-1.1.1-1.6-.4-1-1.4-1.6-2.4-1.8-.5-.1-1-.1-1.5.1s-1 .5-1.2 1c-.2.4-.3 1-.2 1.5.3.6.7 1 1.1 1.2zM41 209.2c-.7-2.7-1.6-5.3-2.8-7.8-1.2-2.5-2.7-4.9-4.5-7-1.8-2.1-3.8-4.1-6.2-5.4 1.1.8 2.1 1.8 3 2.8 1 1 1.8 2 2.6 3.1 1.6 2.2 3 4.5 4.2 7 .6 1.2 1.2 2.4 1.6 3.7.5 1.2.9 2.6 1.4 3.8.4 1.3.7 2.6 1.1 3.9.3 1.3.6 2.7.9 4-.1-1.4-.3-2.7-.5-4.1-.2-1.3-.4-2.6-.8-4zm125.6-13.9c-1.8 1.9-3.3 4.1-4.5 6.4-1.2 2.3-2.2 4.8-3 7.3-.4 1.2-.6 2.5-1 3.8l-.6 3.9c.4-1.2.7-2.5 1.1-3.7.4-1.2.8-2.5 1.2-3.7.2-.6.5-1.2.7-1.8s.5-1.2.8-1.8c.5-1.2 1.1-2.3 1.7-3.5 1.2-2.2 2.6-4.4 4.2-6.4.8-1 1.7-1.9 2.6-2.9.9-.9 1.9-1.8 3-2.4-2.4 1.1-4.4 2.9-6.2 4.8z" fill="#184f58" stroke-width="none" opacity="1"></path></g><g id="svga-group-head" transform="matrix(1,0,0,1,0,0)"><g id="svga-group-ears-left-move" transform="matrix(1,0,0,1,0,0)"><g id="svga-group-ears-left" transform="matrix(1,0,0,1,0,0)"><path id="SvgjsPath4713" d="M61.3 90s-2.5-2.4-5.4-3.5-6.1.7-7.1 3.7c-1 2.9 1.3 15.1 5 19.5s6.2 4.8 8.7 2.5c2.5-2.3 7-10.8-1.2-22.2z" fill="#f0c7b1" stroke-width="none" opacity="1"></path><path id="SvgjsPath4714" d="M62.6 91.8c.4.6.8 1.3 1.2 1.9.4.6.7 1.4 1.1 2 .3.7.6 1.4.9 2.2.2.8.5 1.5.6 2.4.1.4.2.8.2 1.2l.1 1.2c0 1.7-.2 3.4-.7 4.9-.5 1.6-1.2 3-2.2 4.2-.2.3-.5.6-.8.8-.3.2-.6.5-.9.7-.6.4-1.3.7-2.1.8-.7.1-1.5 0-2.2-.3s-1.3-.7-1.8-1.2c-.6-.5-1.1-1-1.6-1.6s-.9-1.1-1.4-1.8c-1.7-2.6-2.6-5.7-3.4-8.7-.4-1.5-.8-3-1.1-4.6s-.6-3.2-.5-4.9c0-.4.1-.9.2-1.3.1-.2.1-.4.2-.6l.3-.6c.4-.7.9-1.3 1.5-1.8 1.2-1 2.6-1.4 4-1.2.7.1 1.4.3 2 .6.6.3 1.2.7 1.8 1.1 1.2.8 2.3 1.6 3.3 2.6l1.3 2zm-4.7-4.1c-.6-.3-1.2-.6-1.8-.8-.6-.2-1.2-.3-1.8-.3-1.2.1-2.3.6-3.3 1.4-.5.4-.9.9-1.2 1.5-.2.3-.3.6-.4.9-.1.3-.2.6-.2.9-.2 1.4-.1 3 .1 4.6.2 1.5.4 3.1.8 4.6.8 3 1.9 6 3.6 8.2.9 1.1 1.9 2.1 3 2.9s2.2 1.3 3.3 1.1c.5-.1 1.1-.3 1.6-.7.5-.4 1-.8 1.4-1.3.8-1 1.5-2.3 1.9-3.7.5-1.4.7-2.8.7-4.3s-.2-3-.4-4.5c-.6-3-2-5.8-3.7-8.2-1.3-.9-2.4-1.7-3.6-2.3z" fill="#e1ac8f" stroke-width="none" opacity="1"></path><path id="SvgjsPath4715" d="M52.6 89.6c3.3.6 5.4 6.1 6 9.8.1.1.1.2.2.3.4.6-.4 1.2-.8.6-.5-.8-1-1.6-1.8-1.9-1.4-.5-2.1 1.1-1.8 2.6.4 1.9 1.6 3 2.6 4.4.1.1 0 .3-.1.2-1.7-1-4.3-4.8-3.1-7.2.9-1.7 2.3-1.4 3.4-.4-.8-2.1-1.4-4.3-3-5.9-.5-.5-1.5-1.4-2.2-1.3-1.3.2-1.3 2.1-1.3 3.4-.1 1.7.1 3.4.4 5 0 .2-.2.2-.3.1-.7-2.4-2-10.4 1.8-9.7z" fill="#d19271" stroke-width="none" opacity="1"></path></g></g><g id="svga-group-ears-right-move" transform="matrix(1,0,0,1,0,0)"><g id="svga-group-ears-right" transform="matrix(1,0,0,1,0,0)"><path id="SvgjsPath4716" d="M138.7 90s2.5-2.4 5.4-3.5 6.1.7 7.1 3.7c1 2.9-1.3 15.1-5 19.5s-6.2 4.8-8.7 2.5c-2.5-2.3-7-10.8 1.2-22.2z" fill="#f0c7b1" stroke-width="none" opacity="1"></path><path id="SvgjsPath4717" d="M138.6 89.9c1.1-1 2.2-1.8 3.3-2.6.6-.4 1.2-.7 1.8-1.1.6-.3 1.3-.6 2-.6 1.4-.2 2.8.3 4 1.2.6.5 1.1 1.1 1.5 1.8l.3.6c.1.2.2.4.2.6.1.4.2.9.2 1.3.1 1.7-.2 3.3-.5 4.9s-.7 3.1-1.1 4.6c-.9 3-1.8 6-3.4 8.7-.4.7-.9 1.2-1.4 1.8-.5.6-1 1.1-1.6 1.6s-1.2.9-1.8 1.2c-.7.3-1.4.4-2.2.3-.7-.1-1.4-.4-2.1-.8-.3-.2-.6-.4-.9-.7-.3-.3-.6-.5-.8-.8-1-1.2-1.7-2.6-2.2-4.2s-.7-3.3-.7-4.9l.1-1.2c0-.4.1-.8.2-1.2.1-.8.4-1.6.6-2.4.3-.7.6-1.5.9-2.2.4-.7.7-1.4 1.1-2 .4-.6.8-1.3 1.2-1.9l1.3-2zm.1.1c-1.7 2.4-3 5.2-3.7 8.2-.3 1.5-.5 3-.4 4.5s.3 2.9.7 4.3 1.1 2.6 1.9 3.7c.4.5.8 1 1.4 1.3.5.4 1 .6 1.6.7 1.1.2 2.2-.3 3.3-1.1 1-.8 2.1-1.8 3-2.9 1.7-2.3 2.8-5.2 3.6-8.2.4-1.5.6-3.1.8-4.6s.3-3.1.1-4.6c0-.4-.1-.6-.2-.9-.1-.3-.3-.6-.4-.9-.3-.6-.7-1-1.2-1.5-.9-.8-2.1-1.3-3.3-1.4-.6 0-1.2.1-1.8.3-.6.2-1.2.5-1.8.8-1.4.6-2.5 1.4-3.6 2.3z" fill="#e1ac8f" stroke-width="none" opacity="1"></path><path id="SvgjsPath4718" d="M147.4 89.6c-3.3.6-5.4 6.1-6 9.8-.1.1-.1.2-.2.3-.4.6.4 1.2.8.6.5-.8 1-1.6 1.8-1.9 1.4-.5 2.1 1.1 1.8 2.6-.4 1.9-1.6 3-2.6 4.4-.1.1 0 .3.1.2 1.7-1 4.3-4.8 3.1-7.2-.9-1.7-2.3-1.4-3.4-.4.8-2.1 1.4-4.3 3-5.9.5-.5 1.5-1.4 2.2-1.3 1.3.2 1.3 2.1 1.3 3.4.1 1.7-.1 3.4-.4 5 0 .2.2.2.3.1.7-2.4 2-10.4-1.8-9.7z" fill="#d19271" stroke-width="none" opacity="1"></path></g></g><g id="svga-group-faceshape-wrap" transform="matrix(1,0,0,1,0,0)"><g id="svga-group-faceshape-single"><path id="SvgjsPath3839" d="M143.2 82.9v-.3c-1.3-30.5-20.7-47.3-43.2-47.3S58.1 52.1 56.9 82.6v.3c0 2.4-.5 15.6 3.1 26.5 3.2 9.8 5.7 17.5 13.5 24.1 5.5 4.6 13.8 14.7 19.6 17.9 2.6 1.4 11.4 1.4 14 0 5.8-3.3 14.1-13.4 19.6-17.9 7.8-6.5 10.4-14.3 13.5-24.1 3.4-10.9 2.9-24.2 3-26.5z" fill="#f0c7b1" stroke-width="none" opacity="1" stroke="none"></path><path id="SvgjsPath3840" d="M73.5 133.4c5.5 4.6 13.8 14.7 19.6 17.9 2.6 1.4 11.4 1.4 14 0 5.8-3.3 14.1-13.4 19.6-17.9 7.8-6.5 10.4-14.3 13.5-24.1 3.4-10.9 2.9-24.2 3-26.5v-.3C141.9 52 122.5 35.2 100 35.2S58.1 52.1 56.9 82.6v.3c0 2.4-.5 15.6 3.1 26.5 3.2 9.8 5.7 17.5 13.5 24zM58 89.6c-.2-3.3-.3-6.7 0-10 .4-6.6 1.9-13.2 4.7-19.2 2.8-5.9 6.9-11.2 12.1-15.1C80 41.5 86 39.1 92.2 38c6.2-1 12.6-.7 18.6.9 6.1 1.5 11.7 4.6 16.6 8.7l.9.8c.3.3.6.6.9.8l1.7 1.7c.6.5 1 1.2 1.6 1.8l1.5 1.9c.9 1.4 1.8 2.8 2.6 4.2l1.1 2.2c.4.7.8 1.4 1 2.2 2.6 6.1 3.9 12.7 4.2 19.5-.1 3.4-.1 6.7-.4 10.1-.3 3.4-.7 6.6-1.5 9.9-.4 1.6-.8 3.3-1.3 4.8s-1.1 3.2-1.7 4.7c-1.2 3.2-2.5 6.2-4 9-1.6 2.8-3.4 5.4-5.6 7.5-.5.6-1.1 1-1.7 1.6l-1.9 1.5c-1.4 1.1-2.6 2.2-3.8 3.5-2.5 2.3-4.8 4.7-7.1 6.9s-4.8 4.5-7.2 6.1c-.3.2-1.8 1.3-8 1.1-.8 0-1.5-.1-2.2-.2-.7-.1-3-1.2-3.3-1.4-.6-.4-1.2-.9-1.8-1.3-2.4-1.9-4.8-4.3-7.1-6.6-2.4-2.3-4.7-4.7-7.3-7-.6-.6-1.3-1.1-2-1.7-.6-.5-1.2-1-1.7-1.5-1.1-1-2.2-2.2-3.1-3.5-1.9-2.4-3.4-5.3-4.7-8.2-1.3-3-2.4-6.1-3.6-9.3-1.1-3.1-1.9-6.2-2.5-9.5-.8-3-1.2-6.2-1.4-9.6z" fill="#c27b55" stroke-width="none" opacity="1" stroke="none"></path></g></g><g id="svga-group-mouth-single-move" transform="matrix(1,0,0,1,0,0)"><g id="svga-group-mouth-single" transform="matrix(1,0,0,1,0,0)"><path id="SvgjsPath4417" d="M85.34 126.92s2.37-.51 5.3-1.54c2.87-1.01 6.09-2.05 8.83-2.14 3.98-.13 6.69.33 9.92 1.61 4.77 1.89 7.89 2.17 7.89 2.17s-2.81 2.71-10.17 4.41c-7.36 1.7-14.09.36-17.26-1.47-3.17-1.83-4.51-3.04-4.51-3.04z" fill="#da7c87" stroke-width="none" opacity="1" transform="translate(0 2)" stroke="none"></path><path id="SvgjsPath4418" d="M118.94 126.28c-.72.2-2.15 1.09-8.57.73-2.91-.16-5.81-.6-8.73-.65-2.85-.05-5.66.33-8.49.57-6.77.58-8.72-.58-9.3-.72-.16-.04-.27.19-.11.27 5.39 2.95 12.12.73 17.9.89 5.62.16 12.32 2.08 17.53-.92.27-.16.09-.26-.23-.17z" fill="#cb5f6c" stroke-width="none" opacity="1" transform="translate(0 2)" stroke="none"></path></g></g><g id="svga-group-eyes-left-move" transform="matrix(1,0,0,1,0,0)"><g id="svga-group-eyes-left" transform="matrix(1,0,0,1,0,0)"><g id="svga-group-eyesback-left"><path id="SvgjsPath5291" d="M89.9 97.6c0-.1-.5-2.9-2.5-4.8s-5.1-3.6-8.7-2.7c-3.5.9-5.3 2.1-7 4.3-1.6 2.2-1.7 3.4-1.7 3.4s3.4 1.1 7.6 1.1c4.1.1 9.6-.7 10.5-.9.9 0 1.8-.4 1.8-.4z" fill="#ffffff" stroke-width="none" opacity="1"></path></g><g id="svga-group-eyesiriswrapper-left" transform="matrix(1,0,0,1,0,0)"><g id="svga-group-eyesiriscontrol-left" transform="matrix(1,0,0,1,0,0)"><g id="svga-group-eyesiris-left" transform="matrix(1,0,0,1,0,0)"><path id="SvgjsPath5516" d="M80.1 87.8c3.2 0 5.7 2.6 5.7 5.7s-2.6 5.7-5.7 5.7-5.7-2.6-5.7-5.7 2.5-5.7 5.7-5.7z" fill="#4e60a3" stroke-width="none" opacity="1"></path><path id="SvgjsPath5517" d="M80.1 88.1c3 0 5.5 2.4 5.5 5.5 0 3-2.4 5.5-5.5 5.5-3 0-5.5-2.4-5.5-5.5s2.4-5.5 5.5-5.5m0-.6c-3.3 0-6 2.7-6 6s2.7 6 6 6 6-2.7 6-6-2.7-6-6-6z" fill="#253984" stroke-width="none" opacity="1"></path><path id="SvgjsPath5518" d="M77 95.1c0 1.4.6 2.7 1.4 3.6.5.2 1.1.2 1.6.2 3 0 5.5-2.4 5.5-5.5 0-1.1-.3-2.2-.9-3-.7-.4-1.5-.6-2.4-.6-2.9.1-5.2 2.5-5.2 5.3z" fill="#6777b2" stroke-width="none" opacity="1"></path><path id="SvgjsPath5519" d="M80.1 90.6c1.6 0 2.9 1.3 2.9 2.9s-1.3 2.9-2.9 2.9-2.9-1.3-2.9-2.9 1.2-2.9 2.9-2.9z" fill="#000000" stroke-width="none" opacity="1"></path><path id="SvgjsPath5520" d="M78.8 90.4c.8 0 1.5.7 1.5 1.5s-.7 1.5-1.5 1.5-1.5-.7-1.5-1.5.7-1.5 1.5-1.5zm2.9 4.3c.5 0 1 .4 1 1s-.4 1-1 1-1-.4-1-1 .4-1 1-1z" fill="#ffffff" stroke-width="none" opacity="1"></path></g></g></g><g id="svga-group-eyesfront-left"><path id="SvgjsPath5299" d="M69.4 94.6c0 6.4 4.7 11.5 10.6 11.5s10.6-5.2 10.6-11.5S85.9 83.1 80 83.1s-10.6 5.1-10.6 11.5zm.7 3.3s.1-1.2 1.7-3.4c1.6-2.2 3.4-3.4 7-4.3s6.7.7 8.7 2.7c2 1.9 2.4 4.8 2.5 4.8 0 0-.9.3-1.8.5s-6.3 1-10.5.9c-4.2-.2-7.6-1.2-7.6-1.2z" fill="#f0c7b1" stroke-width="none" opacity="1"></path><path id="SvgjsPath5300" d="M90.1 96.2c-1.1-4.4-4.7-7.9-9.4-8.1-4.5-.2-8 2.5-9.9 6.5-.1.2-.3 0-.3-.1 1.4-4.4 5.9-7.3 10.5-6.8 4.7.5 8.3 3.9 9.1 8.5z" fill="#e1ac8f" stroke-width="none" opacity="1"></path><path id="SvgjsPath5301" d="M69.7 98.1c.1.2.3.3.4.2 2.7 1.2 6.5 1.2 9.3 1.2 3.4 0 7.1-.3 10.3-1.5.1.2.4.2.4-.1-.3-5-5.2-8.7-10-8.6-4.7.1-9.7 3.6-10.4 8.4-.1.1-.2.3 0 .4zm4 .2c-1.1-.2-2.1-.4-3.2-.5 2.1-3.8 4.6-7 9.3-7.3 4.9-.3 8.3 2.7 9.8 7-3.4.6-6.7 1.3-10.2 1.3-1.8-.1-3.8-.2-5.7-.5z" fill="#000000" stroke-width="none" opacity="1"></path></g></g></g><g id="svga-group-eyes-right-move" transform="matrix(1,0,0,1,0,0)"><g id="svga-group-eyes-right" transform="matrix(1,0,0,1,0,0)"><g id="svga-group-eyesback-right"><path id="SvgjsPath5292" d="M110.1 97.6c0-.1.5-2.9 2.5-4.8s5.1-3.6 8.7-2.7c3.5.9 5.3 2.1 7 4.3 1.6 2.2 1.7 3.4 1.7 3.4s-3.4 1.1-7.6 1.1c-4.1.1-9.6-.7-10.5-.9-.9 0-1.8-.4-1.8-.4z" fill="#ffffff" stroke-width="none" opacity="1"></path></g><g id="svga-group-eyesiriswrapper-right" transform="matrix(1,0,0,1,0,0)"><g id="svga-group-eyesiriscontrol-right" transform="matrix(1,0,0,1,0,0)"><g id="svga-group-eyesiris-right" transform="matrix(1,0,0,1,0,0)"><path id="SvgjsPath5521" d="M119.9 87.8c3.2 0 5.7 2.6 5.7 5.7s-2.6 5.7-5.7 5.7-5.7-2.6-5.7-5.7 2.6-5.7 5.7-5.7z" fill="#4e60a3" stroke-width="none" opacity="1"></path><path id="SvgjsPath5522" d="M119.9 88.1c3 0 5.5 2.4 5.5 5.5 0 3-2.4 5.5-5.5 5.5s-5.5-2.4-5.5-5.5c.1-3.1 2.5-5.5 5.5-5.5m0-.6c-3.3 0-6 2.7-6 6s2.7 6 6 6 6-2.7 6-6-2.6-6-6-6z" fill="#253984" stroke-width="none" opacity="1"></path><path id="SvgjsPath5523" d="M116.9 95.1c0 1.4.6 2.7 1.4 3.6.5.2 1.1.2 1.6.2 3 0 5.5-2.4 5.5-5.5 0-1.1-.3-2.2-.9-3-.7-.4-1.5-.6-2.4-.6-2.9.1-5.2 2.5-5.2 5.3z" fill="#6777b2" stroke-width="none" opacity="1"></path><path id="SvgjsPath5524" d="M119.9 90.6c1.6 0 2.9 1.3 2.9 2.9s-1.3 2.9-2.9 2.9-2.9-1.3-2.9-2.9 1.3-2.9 2.9-2.9z" fill="#000000" stroke-width="none" opacity="1"></path><path id="SvgjsPath5525" d="M118.7 90.4c.8 0 1.5.7 1.5 1.5s-.7 1.5-1.5 1.5-1.5-.7-1.5-1.5.7-1.5 1.5-1.5zm2.8 4.3c.5 0 1 .4 1 1s-.4 1-1 1-1-.4-1-1 .5-1 1-1z" fill="#ffffff" stroke-width="none" opacity="1"></path></g></g></g><g id="svga-group-eyesfront-right"><path id="SvgjsPath5302" d="M120 83.1c-5.9 0-10.6 5.2-10.6 11.5s4.7 11.5 10.6 11.5 10.6-5.2 10.6-11.5-4.8-11.5-10.6-11.5zm2.3 15.9c-4.1.1-9.6-.7-10.5-.9-.9-.2-1.8-.5-1.8-.5 0-.1.5-2.9 2.5-4.8s5.1-3.6 8.7-2.7 5.3 2.1 7 4.3c1.6 2.2 1.7 3.4 1.7 3.4s-3.4 1.1-7.6 1.2z" fill="#f0c7b1" stroke-width="none" opacity="1"></path><path id="SvgjsPath5305" d="M109.9 96.2c1.1-4.4 4.7-7.9 9.4-8.1 4.5-.2 8 2.5 9.9 6.5.1.2.3 0 .3-.1-1.4-4.4-5.9-7.3-10.5-6.8-4.7.5-8.3 3.9-9.1 8.5z" fill="#e1ac8f" stroke-width="none" opacity="1"></path><path id="SvgjsPath5306" d="M130.3 97.7c-.7-4.8-5.8-8.3-10.4-8.4-4.8-.1-9.7 3.6-10 8.6 0 .2.3.3.4.1 3.3 1.1 6.9 1.5 10.3 1.5 2.8 0 6.6 0 9.3-1.2.2.1.4 0 .4-.2.2-.1.1-.3 0-.4zm-9.8 1c-3.5 0-6.8-.6-10.2-1.3 1.5-4.4 4.9-7.3 9.8-7 4.7.3 7.2 3.6 9.3 7.3-1.1.1-2.1.4-3.2.5-1.8.4-3.8.5-5.7.5z" fill="#000000" stroke-width="none" opacity="1"></path></g></g></g><g id="svga-group-facehighlight-single"></g><g id="svga-group-eyebrows-left-move" transform="matrix(1,0,0,1,0,0)"><g id="svga-group-eyebrows-left-rotate" transform="matrix(1,0,0,1,0,0)"><g id="svga-group-eyebrows-left" transform="matrix(1,0,0,1,0,0)"><path id="SvgjsPath5963" d="M67.6 82.5c.1-.5.6-.7 1-1 .3-.2.7-.5 1-.7 0-.1 0-.2.1-.3 1.1-1.1 2.9-1.6 4.4-2.1.8-.8 2.1-.7 3.3-.4 1.4-.5 3.4.2 4.5.9.1.1.2.1.2.2.1 0 .3.1.4.1.8.2 1.4.4 1.9 1 1.2.5 2.4 1.1 3.2 2.1.6.2 1.2.5 1.7 1 .2.1.4.2.5.4h.2c.2 0 .4.2.6.3v-.2c-.1-.2.2-.3.3-.1.5.7.6 1.8.1 2.5 0 .1-.1.3-.1.4-.3.4-.6.5-.9.5-.6.2-1.2.2-1.7-.2-2-.1-4.2-1.3-5.9-2.3-.9-.5-2.5-1.3-3.5-2.3-.9-.1-1.8-.3-2.7-.5-1.1-.2-2.3-.2-3.3-.6-.2.1-.4.1-.6.2-.5.3-1.1.6-1.6.8-.6.3-1.2.6-1.9.6-.3 0-.5.2-.8.2-.3 0-.5-.3-.4-.5z" fill="#2a232b" stroke-width="none" opacity="1"></path><path id="SvgjsPath5964" d="M85.9 81.1c0-.1.1-.3.3-.1 1.3 1.3 1.8 3.6 1 5.3-.1.2-.4.1-.4-.1-.1-.1-.1-.2-.2-.3-.1-.1.1-.2.2-.2h.1c.1-.7.2-1.4 0-2.1-.2-.8-.6-1.6-1-2.5zm1.8.7c1.3 1.2 2.6 3.4 1.9 5.3-.1.2-.4.2-.4-.1.1-2-.9-3.2-1.8-4.9-.2-.3.1-.5.3-.3zm-8-3.4c3.3.5 5.1 4.2 5.8 7.1.1.2-.2.3-.3.1-.7-1.2-1.1-2.6-1.9-3.8-1-1.4-2.4-2.2-3.7-3.1-.2-.1-.1-.3.1-.3zm-2.6-.7c1.1 1 1.8 2.4 2.8 3.5 1.1 1.2 2.3 2.1 3.6 3 .2.1 0 .4-.2.3-2.9-1.3-4.9-3.8-6.7-6.4-.3-.3.2-.6.5-.4zm-2.4.3c.8.1 1.3.9 1.8 1.5.4.5.7 1 1.3 1.3.5.3.9.6 1.3 1 .2.2-.1.5-.3.3-.8-.6-1.7-.9-2.4-1.7-.3-.3-.5-.7-.8-1.1-.3-.4-.7-.6-1-1-.2 0-.1-.3.1-.3zm-5.3 3c1.5-1.4 4.2-1.4 5.8-.2.2.1.1.4-.2.4-1.1-.3-2.1-.6-3.3-.4-.8.2-1.4.6-2.2.6-.2-.1-.3-.3-.1-.4z" fill="#3a353a" stroke-width="none" opacity="1"></path><path id="SvgjsPath5965" d="M90.6 82.6c-.1-.1-.2 0-.2.1.2.7.7 1.5.7 2.3 0 1.6-1.5 1.9-2.7 1.6-.6-.1-1.2-.3-1.8-.6.3-1.7-.2-3.7-1.2-5.3 1.5 1 2.9 2.3 4.5 2.9.2.1.4-.2.3-.4-1.3-1.9-4.1-3.2-6.1-4.2-2.2-1.1-4.4-1.8-6.9-1.7-2.3 0-4.5.6-6.4 1.9-2.1 1.4-3.7 3.3-5.5 4.9-.4.4.2 1 .7.7 2.6-2.2 5.9-3.2 9.3-2.8 3.2.4 5.8 2.3 8.5 3.8 1.8 1 4.7 2.5 6.8 1.6 2-1 1.1-3.5 0-4.8zm-14.1-4.4c-.1.1-.1.1-.1.2.3 1 1 1.9 1.7 2.7.2.3.4.5.6.8-.3-.1-.6-.2-.8-.3-.1 0-.2-.1-.3-.1-1.2-.7-2.2-1.6-3.4-2.4-.1-.1-.3.1-.2.2.5.7 1.1 1.3 1.8 1.7-.2 0-.5-.1-.7-.1-.2-.1-.3-.2-.5-.3-.1-.1-.2-.1-.3-.2-.1 0-.2-.1-.3-.1-.1-.1-.2.1-.1.2l.2.2c.1.1.2.1.2.1-2.1-.1-4.2.4-6.2 1.3 2.4-2.1 5.2-3.6 8.4-3.9zm9.5 7.6c-.6-.2-1.1-.5-1.6-.8-1.4-.8-2.9-1.7-4.3-2.5-.5-.6-.9-1.2-1.4-1.8-.6-.8-1.1-1.8-1.8-2.5h.8c2.4.1 4.5.9 6.6 2 .5.9 1 1.8 1.3 2.8.3.9.3 1.9.4 2.8z" fill="#1b141c" stroke-width="none" opacity="1"></path></g></g></g><g id="svga-group-eyebrows-right-move" transform="matrix(1,0,0,1,0,0)"><g id="svga-group-eyebrows-right-rotate" transform="matrix(1,0,0,1,0,0)"><g id="svga-group-eyebrows-right" transform="matrix(1,0,0,1,0,0)"><path id="SvgjsPath5966" d="M132.4 82.5c-.1-.5-.6-.7-1-1-.3-.2-.7-.5-1-.7 0-.1 0-.2-.1-.3-1.1-1.1-2.9-1.6-4.4-2.1-.8-.8-2.1-.7-3.3-.4-1.4-.5-3.4.2-4.5.9-.1.1-.2.1-.2.2-.1 0-.3.1-.4.1-.8.2-1.4.4-1.9 1-1.2.5-2.4 1.1-3.2 2.1-.6.2-1.2.5-1.7 1-.2.1-.4.2-.5.4h-.2c-.2 0-.4.2-.6.3v-.2c.1-.2-.2-.3-.3-.1-.5.7-.6 1.8-.1 2.5 0 .1.1.3.1.4.3.4.6.5.9.5.6.2 1.2.2 1.7-.2 2-.1 4.2-1.3 5.9-2.3.9-.5 2.5-1.3 3.5-2.3.9-.1 1.8-.3 2.7-.5 1.1-.2 2.3-.2 3.3-.6.2.1.4.1.6.2.5.3 1.1.6 1.6.8.6.3 1.2.6 1.9.6.2.2.5.3.8.3.3-.1.5-.4.4-.6z" fill="#2a232b" stroke-width="none" opacity="1"></path><path id="SvgjsPath5967" d="M114.1 81.1c.1-.2-.1-.3-.2-.2-1.3 1.3-1.8 3.6-1 5.3.1.2.4.1.4-.1.1-.1.1-.2.2-.3.1-.1-.1-.2-.2-.2h-.1c-.1-.7-.2-1.4 0-2.1.1-.7.5-1.5.9-2.4zm-1.8.7c-1.3 1.2-2.6 3.4-1.9 5.3.1.2.4.2.4-.1-.1-2 .9-3.2 1.8-4.9.2-.3-.1-.5-.3-.3zm8-3.4c-3.3.5-5.1 4.2-5.8 7.1-.1.2.2.3.3.1.7-1.2 1.1-2.6 1.9-3.8 1-1.4 2.4-2.2 3.7-3.1.2-.1.1-.3-.1-.3zm2.6-.7c-1.1 1-1.8 2.4-2.8 3.5-1.1 1.2-2.3 2.1-3.6 3-.2.1 0 .4.2.3 2.9-1.3 4.9-3.8 6.7-6.4.3-.3-.2-.6-.5-.4zm2.4.3c-.8.1-1.3.9-1.8 1.5-.4.5-.7 1-1.3 1.3-.5.3-.9.6-1.3 1-.2.2.1.5.3.3.8-.6 1.7-.9 2.4-1.7.3-.3.5-.7.8-1.1.3-.4.7-.6 1-1 .2 0 .1-.3-.1-.3zm5.3 3c-1.5-1.4-4.2-1.4-5.8-.2-.2.1-.1.4.2.4 1.1-.3 2.1-.6 3.3-.4.8.2 1.4.6 2.2.6.2-.1.3-.3.1-.4z" fill="#3a353a" stroke-width="none" opacity="1"></path><path id="SvgjsPath5968" d="M109.5 87.3c2.1.9 4.9-.6 6.8-1.6 2.8-1.5 5.3-3.4 8.5-3.8 3.4-.4 6.7.6 9.3 2.8.4.4 1.1-.3.6-.7-1.9-1.6-3.4-3.6-5.5-4.9-1.9-1.2-4.1-1.8-6.4-1.9-2.4 0-4.7.7-6.9 1.7-2 1-4.8 2.3-6.1 4.2-.1.2.1.5.3.4 1.6-.6 3-1.9 4.5-2.9-1 1.6-1.6 3.6-1.2 5.3l-1.8.6c-1.3.3-2.7 0-2.7-1.6 0-.8.4-1.6.7-2.3 0-.1-.1-.2-.2-.1-1.1 1.4-2 3.9.1 4.8zm22.3-5.1c-1.9-.9-4-1.4-6.2-1.3.1 0 .2-.1.2-.1l.2-.2c.1-.1 0-.3-.1-.2-.1 0-.2.1-.3.1-.1 0-.2.1-.3.2-.2.1-.4.2-.5.3-.2 0-.5.1-.7.1.7-.5 1.4-1 1.8-1.7.1-.1-.1-.3-.2-.2-1.2.8-2.2 1.7-3.4 2.4-.1 0-.2.1-.3.1-.3.1-.6.2-.8.3.2-.2.4-.5.6-.8.6-.8 1.3-1.7 1.7-2.7 0-.1 0-.2-.1-.2 3.3.2 6.1 1.7 8.4 3.9zm-17.4.8c.3-1 .8-1.9 1.3-2.8 2.1-1.1 4.2-1.9 6.6-2h.8c-.7.7-1.2 1.7-1.8 2.5-.4.6-.9 1.2-1.4 1.8-1.5.8-2.9 1.7-4.3 2.5-.5.3-1.1.6-1.6.8.1-.9.1-1.9.4-2.8z" fill="#1b141c" stroke-width="none" opacity="1"></path></g></g></g><g id="svga-group-beardwrap" transform="matrix(1,0,0,1,0,0)"><g id="svga-group-beard-single-move" transform="matrix(1,0,0,1,0,0)"><g id="svga-group-beard-single" transform="matrix(1,0,0,1,0,0)"></g></g></g><g id="svga-group-mustache-single-move" transform="matrix(1,0,0,1,0,0)"><g id="svga-group-mustache-single" transform="matrix(1,0,0,1,0,0)"></g></g><g id="svga-group-nose-single-move" transform="matrix(1,0,0,1,0,0)"><g id="svga-group-nose-single" transform="matrix(1,0,0,1,0,0)"><path id="SvgjsPath3525" d="M105.06 106.65c.56.92 2.64 3.61 3.09 4.9.45 1.29-.13 3.22-1.48 3.61s-3.61-.39-3.93-.19c-.32.19-1.87 2.06-2.58 1.93-.71-.13-2.64-2.13-3.03-2.13-.39 0-2.13.45-2.97.45-.84 0-2.9-.71-2.64-2.51.26-1.81 2.45-5.54 2.9-6.06.45-.52 1.48-2.32 1.74-3.42s.58-7.03.71-8.38c.13-1.35 1.35-2.97 2.58-3.09 1.23-.13 3.35.77 3.55 2.9.19 2.13.58 6.38.77 8.12.19 1.74.58 2.71 1.29 3.87z" fill="#f0c7b1" stroke-width="none" opacity="1" transform="translate(0 1)" stroke="none"></path><path id="SvgjsPath3526" d="M97.62 85.76c-.84 3.5-.96 7.24-1.34 10.81-.4 3.83-1.14 7.78-1.09 11.63 0 .31.48.39.55.07.78-3.52.88-7.26 1.24-10.84.39-3.82 1.1-7.79.98-11.63 0-.18-.29-.24-.34-.04z" fill="#c27b55" stroke-width="none" opacity="1" transform="translate(0 1)" stroke="none"></path><path id="SvgjsPath3527" d="M94.46 106.19c-1.03 1.37-1.9 2.87-2.65 4.41-.49 1-1.09 2.17-.77 3.32.53 1.89 2.93 2.49 4.5 1.58.47-.27.26-.99-.27-1-.92-.01-1.98.28-2.72-.5-.88-.94-.01-2.63.38-3.57.58-1.39 1.28-2.72 1.83-4.12.07-.19-.2-.26-.3-.12z" fill="#c27b55" stroke-width="none" opacity="1" transform="translate(0 1)" stroke="none"></path><path id="SvgjsPath3528" d="M94.31 113.98c2.84-.21 3.38 3.37 6.07 3.45 2.31.07 2.5-3.41 4.69-3.3.26.01.34-.35.13-.47-2.49-1.47-2.95 2.86-5.24 2.59-1.36-.16-2.32-2.16-3.54-2.73-.83-.39-1.43-.36-2.23.02-.22.09-.11.46.12.44z" fill="#c27b55" stroke-width="none" opacity="1" transform="translate(0 1)" stroke="none"></path><path id="SvgjsPath3529" d="M104.29 115.6c1.87.42 4.05-.16 4.49-2.24.22-1.04-.13-2.07-.67-2.95-.89-1.44-2.03-2.66-2.87-4.15-.14-.25-.49-.12-.51.14-.11 1.67 1.13 2.83 2.02 4.12.82 1.19 1.53 2.83.15 4-.63.54-1.83.44-2.6.59-.26.04-.25.43-.01.49z" fill="#c27b55" stroke-width="none" opacity="1" transform="translate(0 1)" stroke="none"></path><path id="SvgjsPath3530" d="M102.45 109.98c-.41-.74-1.47-.85-2.06-.26-.05.05-.24.29-.3.36-.07.09-.2.26-.23.29-.07.1-.12.21-.18.32l-.12.28c0-.01-.01.01-.03.05-.06.06-.12.13-.18.2-.18.19-.36.38-.5.6-.42.67-.08 1.42.48 1.84.87.65 2.13.13 2.74-.61.76-.89.96-2.03.38-3.07z" fill="#f8d5c3" stroke-width="none" opacity="1" transform="translate(0 1)" stroke="none"></path></g></g><g id="svga-group-hair-front" transform="matrix(1,0,0,1,0,0)"><path id="SvgjsPath7635" d="M135.8 66.3c-1 3.3-1 5.1-.9 7.6.1 2.4-1 5.1 1.1 4.8 2.1-.3 4.4-.7 5.7-4.2 1.3-3.5 3-8.2 2.9-10-.1-1.8-3.7-9-3.7-9l-3.3 7.8-1.8 3z" fill="#221b23" stroke-width="none" opacity="1"></path><path id="SvgjsPath7636" d="M143.8 74c.4-3.6 1-8.5.2-9.3-.8-.8-5.6 2.2-6 4.8s-.4 7.5-.4 7.5c-.7 2.7-.8 4-.7 5.8.1 1.8-1 3.9.7 3.6.1 0 .2 0 .2-.1-.3 2.3-.1 3.8.2 5.4.3 2.2-.7 4.5 1 4.6s2.7-.6 3.5-3.8c.8-3.2 1.3-6.4 1.4-9.5.1-2.5.2-6.3-.2-8.4.1-.2.1-.4.1-.6zm-81.6 6.8c-.5-1.6-.3-4-1-5.3s-3.5-6.4-3.5-6.4c-.9 1.8-2.3 3.9-2.3 7.1 0 2.7-.4 4.6.2 6.2-.1 1.2-.1 2.4 0 3.1.2 1.1 1.8 8.1 3.4 9.1 1.4.8 2.4-2.9 2.2-6.2 1.6-2.9 1.5-6.1 1-7.6z" fill="#1b141c" stroke-width="none" opacity="1"></path><path id="SvgjsPath7637" d="M59.3 61c-.9.8-2.3 3.2-2.7 5.7s-.4 5 .1 6.2c.6 1.1 3.6 7.3 5.6 6.3 2-1 1.3-3 1.1-6.2s.1-3.7-.7-6.4c-.8-2.8-3.4-5.6-3.4-5.6zm8.9-37.1c-.7-2.5 3 1.4 2.9 7.5-.1 6.2 1 10.6 3.8 13 2.8 2.4 13.2 11.2 13.2 11.2s-2.4.7-7.2-.7-11-3.5-14.2-7.6-2.3-10.2-.9-13.2c1.4-2.9 3.3-6.9 2.4-10.2zm51.4 32c2.2-.6 5.8-1.7 7.5-.6 1.6 1.1 1.7 4.7 5.3 4.6 3.6-.1 6.8-6.5 6.5-9.4-.2-2.9-2.4-7.8-5.9-9.1-3.5-1.3-3.1 2.6-3.5 4.1-.4 1.5.1 2.5-3.5 5.1-3.5 2.7-6.4 5.3-6.4 5.3z" fill="#221b23" stroke-width="none" opacity="1"></path><path id="SvgjsPath7638" d="M131.3 58.4c-.2 1.1-.4 4.4 1.1 6.4s.6 4.3 3.8 3.1c3.2-1.2 6.9-5.4 6.6-8.5-.2-3.1-2.7-10.6-5.3-12-2.7-1.3-2.9 4.6-2.9 4.6l-3.3 6.4zM66.4 40c-1.8 2.1-4.9 2.8-4.2 6.5s5.4 7.7 9.8 8.3 7.7-.1 8.3-.6-9.6-6.2-9.6-6.2l-4.3-8z" fill="#2a232b" stroke-width="none" opacity="1"></path><path id="SvgjsPath7639" d="M62.8 45.5c-1.2 1-2.4 1.5-2.8 4.4-.4 2.9-.5 3.4 1.2 6.7 1.8 3.3 2 5.3 4.6 4.7 2.6-.6 5.5-2.9 5.2-6.5s-2.7-1.3-3.9-4.5-2.1-3.9-2.1-3.9l-2.2-.9z" fill="#221b23" stroke-width="none" opacity="1"></path><path id="SvgjsPath7640" d="M60.9 52.2c-1.2 1.6-2.6 1.9-2.9 4.9s-1.3 2.9.7 6.4c2 3.5 4 7.7 5.9 5.7s1.6-3 1.9-5.4c.3-2.4-.6-4.9-1.7-7-1.2-2.2-3.9-4.6-3.9-4.6zm34.5 5s-6.4 0-10.1-1.8c-3.7-1.8-11.6-8.7-13.2-13.6s.4-14.4-.8-18.9c0 0 1.5 3.8 2.9 5.8s4.4 2 9.2 4.8 9.1 8.5 9.8 12.8 2.2 10.9 2.2 10.9z" fill="#1b141c" stroke-width="none" opacity="1"></path><path id="SvgjsPath7641" d="M73.7 18.1c-.1-.5-2 6.7 2 10.6S85.9 37 87.2 42.2s.9 6.1 2.3 9.3 3.2 6.4 5.8 7.6c2.6 1.2 7.4-.2 7.4-1s4.1 3.5 6.8 2.2c2.7-1.3 10.3-10.6 11.4-17.2s-2.4-13.6-6.8-14.7-21.6-2.4-25.2-4.3c-3.6-1.9-5.2-3.7-5.6-5.1 0 0-.3 3.4 3 7.4S96 33 96 33s4.7 1.2 5.3 5c0 0-8.2-6.4-15-8.9s-10-.9-12.6-11z" fill="#221b23" stroke-width="none" opacity="1"></path><path id="SvgjsPath7642" d="M104.5 60.4s-4.2.3-5.8-4.5S98 42 95.1 37.1s-13.9-7.4-16.7-10.3c-2.7-2.9-3.8-9.3-3.8-9.3s2.7 7.9 6.7 8.4c3.9.5 17.3 4.9 21.7 6.9s9.1 10.3 8.2 15.5-2.5 12.6-6.7 12.1z" fill="#2a232b" stroke-width="none" opacity="1"></path><path id="SvgjsPath7643" d="M110.6 26.7c.6 0 10.8 2.9 15.9 4.5s17 10.3 4.4 17.8-8 8.8-20.3 10.9c-3.4.6 3.6-5.6 6.3-11 2.7-5.4 2.5-14.6 1-16.6s-7.3-5.6-7.3-5.6z" fill="#1b141c" stroke-width="none" opacity="1"></path><path id="SvgjsPath7644" d="M96.3 58.9c-3.5-3-5.5-6.7-6.4-11.2-.6-3.2-.3-6.8-1.7-9.7-.9-1.8-2.2-3-3.8-4.1-4.4-3.1-7.9-5-9.8-10.5-.1-.2-.4-.1-.3.1.8 3 2.2 5.6 4.6 7.6 4.2 3.7 8.6 4.8 9.5 11.3.8 6.3 1.6 13.5 7.9 16.8-.1 0 .1-.2 0-.3zm2.5-.6c-6.1-2.7-8.2-8.4-8.7-14.6 0-.2-.3-.2-.3 0-.2 6.2 2.7 12.8 8.9 14.9.2 0 .3-.2.1-.3zm3.5.5c-3.5-4-4.4-8.4-4.3-13.6.1-2.9.5-5.9-1.2-8.5-1.4-2.2-3.7-3.1-5.9-4.2-3.7-1.8-7.3-3.6-11-5.1-.1 0-.2.1-.1.2 3.5 2 7.2 3.7 10.8 5.5 2.8 1.4 5.2 2.4 6.3 6 .6 1.9.2 4.2.2 6.1-.2 5.5 1.1 9.9 5 13.8.1.2.4-.1.2-.2zm3.6-.3c-3.7-3.2-1.6-6.9-1.5-11 0-2.6-.7-4.9-2-7.1-.1-.2-.3 0-.2.1 1.1 2.4 1.7 4.9 1.6 7.5-.1 1.8-.8 3.5-.8 5.3-.1 2.3 1 4 2.8 5.3.1.2.2 0 .1-.1zm18.3-25.6c-.2-.1-.3.2-.1.3.8.3 1.6.5 2.4.8v.1c7.6 6.6-2.7 14.6-7.7 18.1-.2.1 0 .4.2.3 5.3-2.8 16-12.5 8.1-18.3 3.1 1.3 3.8 2 4.7 5.5.8 3.2.4 4.9-2 7.4-1.3 1.4-3.1 2.4-4.8 3.4-4.2 2.5-7.9 5.8-12.2 8.2-.1 0 0 .2.1.1 4.4-2 8.1-5.5 12.3-8 2.8-1.7 5.7-3.5 7.1-6.5 3-6.4-2.7-10-8.1-11.4zm-10.5-3.3c-.1 0-.2.2 0 .2 4.6 1 9.8 2.1 10.5 7.7.5 4-2.1 7.8-4.8 10.4-3.5 3.3-7.4 5.9-8.2 11-.1.4.5.6.6.2 1.5-8.6 12.7-10.9 13.2-20.3.4-6.8-5.6-8.8-11.3-9.2zm-1.1 8.2c-4.2-9.5-17.4-8.6-24.7-14.5-.1-.1-.3.1-.2.2 7.2 6.7 18.9 5.6 24.3 14.6.3.3.8 0 .6-.3zm25.8 14.3c-.1-.2-.4-.2-.4 0 .1 5.3-6.3 8.5-4.5 14 .1.2.4.1.3-.1-1.3-5.4 5.8-8.4 4.6-13.9zm3.1 7.4c0-.2-.3-.2-.4 0-.6 1.8-1 3.6-1.9 5.3-.8 1.4-1.9 2.5-2.6 3.9-1 2-1.1 4-.5 6.1.1.2.4.1.3-.1-.6-4 1.4-5.9 3.3-9.1 1.1-1.9 1.6-4 1.8-6.1zm.7 2c0-.3-.4-.2-.5.1-.2 2.2-.4 4.1-1.2 6.1-.1.2.2.4.3.2 1-1.9 1.7-4.2 1.4-6.4zm0 11.7c0-.2-.3-.2-.4-.1-.6 3-1.6 5.7-2.5 8.6-.6 1.9-.8 3.6 0 5.4.1.3.6.1.5-.2-1-2.8.3-5.1 1.2-7.7.8-1.9 1.2-3.9 1.2-6zm-.2 8c-.5 1.1-.6 2.5-.6 3.7 0 .2.4.2.4 0 0-1.2.3-2.3.5-3.5 0-.3-.2-.5-.3-.2zM86.9 53.1c-4.5-1.6-8.2-3.9-10.6-8.2-2.5-4.4-2.2-9-2.3-13.9 0-.3-.5-.3-.5 0-.9 9.7 2.8 20 13.3 22.4.3.1.3-.2.1-.3zm-8.6-2c-2.7-1.7-5.5-4.7-7-7.5-1.9-3.4-1.8-7.3-1.7-11.1 0-.3-.4-.3-.4 0-.5 7.7 1.7 15 9 18.9.1.1.3-.2.1-.3zm-3.7.1c-3.8-1.8-6.7-4.4-8.4-8.4-.1-.2-.5-.2-.4.1 1.2 4 4.4 7.7 8.6 8.7.2.1.4-.3.2-.4zm-4.3 1.6c-1.7-.7-3.3-1.5-4.8-2.5-.1-.1-.2.1-.1.2 1.5 1 3.1 1.9 4.9 2.5.1-.1.1-.2 0-.2zM66 57.6c-1.6-1.5-3.2-2.8-4.4-4.6-.1-.2-.4 0-.3.2 1.2 1.8 2.7 3.6 4.5 4.7.1 0 .3-.2.2-.3zm55.6-20.7c-.4-3.5-3.1-6.2-6.5-6.7-.2 0-.2.2-.1.2 4.1 1.4 7.1 5.1 5.7 9.7-.8 2.6-3 4.6-4.6 6.7-.1.1.1.2.2.1 2.6-2.9 5.8-5.7 5.3-10zm-10.2-3.3c-.2-.2-.4.1-.2.2 5.6 6.5.8 14.3-1.4 21.2-.1.2.2.3.3.1 2.6-6.6 7.5-15.5 1.3-21.5zm-16.7-.9c-.2 0-.3.2-.1.3 8.9 2.5 3.9 14.4 6.7 20.7.1.2.3 0 .3-.1-1.8-6.4 2.2-18.9-6.9-20.9z" fill="#3a353a" stroke-width="none" opacity="1"></path></g><g id="svga-group-glasses-single-move" transform="matrix(1,0,0,1,0,0)"><g id="svga-group-glasses-single" transform="matrix(1,0,0,1,0,0)"><path id="SvgjsPath7088" d="M82.9 86.6c-3-.5-9.7-1.2-13 1.2-3 2.2-2.6 4.2-2.5 6.7.1 2.5 1.1 9 5.6 11.7 3.9 2.3 9.4 2.7 12.7 1.8 4.1-1.1 7.5-4.9 8.5-8.9s.8-6-.1-7.9c-.8-1.8-4.3-3.4-11.2-4.6z" fill="url(#SvgjsLinearGradient7089)" opacity="1"></path><path id="SvgjsPath7096" d="M117.1 86.6c3-.5 9.7-1.2 13 1.2 3 2.2 2.6 4.2 2.5 6.7-.1 2.5-1.1 9-5.6 11.7-3.9 2.3-9.4 2.7-12.7 1.8-4.1-1.1-7.5-4.9-8.5-8.9s-.8-6 .1-7.9c.8-1.8 4.3-3.4 11.2-4.6z" fill="url(#SvgjsLinearGradient7097)" opacity="1"></path><path id="SvgjsPath7104" d="M94.9 94.2c-.1 0-.1.1-.2.1.1 1.2-.1 2.7-.7 4.8-1 4-4.5 7.7-8.3 8.7-3.2.8-8.7.5-12.5-1.8-4.8-2.9-5.4-10.1-5.4-11.5v-1c-.2 0-.3 0-.5-.1v1.1c.1 1.5.7 8.9 5.7 11.9 2.7 1.6 6 2.3 9 2.3 1.4 0 2.8-.2 3.9-.5 4-1.1 7.6-4.8 8.7-9 .6-2.2.8-3.8.7-5.2-.2.1-.3.1-.4.2z" fill="#070201" stroke-width="none" opacity="1"></path><path id="SvgjsPath7105" d="M103.3 91.4h-6.7l-.2-1.4h7.1l-.2 1.4z" fill="#070201" stroke-width="none" opacity="1"></path><path id="SvgjsPath7106" d="M62.1 85.8s0 3.4.1 3.6 2.8.7 3.3 3.9l2.4.2s.1-3.1 1.7-4.8c1.6-1.6 4.4-2.6 12.9-1.6s11.9 3.1 12.2 7.2c0 0 2.5-.9 2-3.7-.4-2.8-7-4.6-14.5-5.6s-20.1.8-20.1.8z" fill="#26120b" stroke-width="none" opacity="1"></path><path id="SvgjsPath7107" d="M96.7 90c-.4-.9-1.1-1.4-1.9-1.9-.8-.4-1.5-.8-2.3-1.1-3.2-1.2-6.6-1.8-10-2.2-3.4-.5-6.8-.3-10.2-.2-3.4.2-6.8.6-10.2 1.2v3.7l.1.1.3.1c.2.1.3.2.5.2.7.3 1.2.8 1.6 1.4.4.6.6 1.3.8 2v.1h.1l2.4.2h.2v-.2c.1-1.4.4-2.8 1.1-3.9.7-1.1 2-1.9 3.3-2.2 2.7-.7 5.6-.5 8.4-.2 2.8.3 5.6.6 8.3 1.5 1.3.5 2.6 1.1 3.6 2 .5.5.9 1.1 1.2 1.7.3.6.4 1.3.5 2v.2l.2-.1c.8-.3 1.5-1 1.9-1.8.2-.4.3-.9.3-1.3s-.1-.8-.2-1.3zm-.5 2.5c-.3.7-.8 1.2-1.5 1.6-.1-.6-.2-1.3-.5-1.9-.3-.7-.8-1.2-1.3-1.7-1.1-1-2.4-1.6-3.8-2-2.7-.8-5.5-1.3-8.3-1.6-1.4-.2-2.8-.3-4.2-.3-1.4 0-2.9 0-4.3.4-1.4.3-2.8 1.1-3.6 2.4-.7 1.2-1 2.6-1.1 4l-2.1-.1c-.1-.7-.4-1.4-.8-2-.4-.6-1-1.2-1.7-1.5-.2-.1-.3-.2-.5-.2l-.2-.1v-.2c0-.4 0-.7-.1-1.1l-.1-2.2c3.3-.4 6.8-.7 10.2-.8 3.4-.1 6.8-.2 10.1.3s6.7 1.1 9.9 2.2c.8.3 1.6.6 2.3 1 .7.4 1.4.9 1.7 1.7.2.5.3 1.4-.1 2.1z" fill="#070201" stroke-width="none" opacity="1"></path><path id="SvgjsPath7108" d="M132.3 93.5v1.1c-.1 1.4-.6 8.6-5.4 11.5-3.8 2.3-9.3 2.6-12.5 1.8-3.8-1-7.3-4.7-8.3-8.7-.6-2.1-.7-3.7-.7-4.9-.2-.1-.3-.2-.5-.3-.1 1.4.1 3.1.7 5.3 1.1 4.2 4.7 8 8.7 9 1.1.3 2.5.5 3.9.5 2.9 0 6.3-.7 9-2.3 5-3 5.6-10.5 5.7-11.9v-1.1h-.6z" fill="#070201" stroke-width="none" opacity="1"></path><path id="SvgjsPath7109" d="M137.9 85.8s0 3.4-.1 3.6-2.8.7-3.3 3.9l-2.4.2s-.1-3.1-1.7-4.8c-1.6-1.6-4.4-2.6-12.9-1.6s-11.9 3.1-12.2 7.2c0 0-2.5-.9-2-3.7.4-2.8 7-4.6 14.5-5.6s20.1.8 20.1.8z" fill="#26120b" stroke-width="none" opacity="1"></path><path id="SvgjsPath7110" d="M103.1 91.4c0 .4.1.9.3 1.3.4.8 1.1 1.5 1.9 1.8l.2.1v-.2c.1-.7.2-1.4.5-2 .3-.6.7-1.2 1.2-1.7 1-.9 2.3-1.6 3.6-2 2.7-.9 5.5-1.2 8.3-1.5 2.8-.2 5.7-.4 8.4.2 1.3.3 2.6 1.1 3.3 2.2.7 1.2 1.1 2.6 1.1 3.9v.2h.2l2.4-.2h.1v-.1c.1-.7.4-1.4.8-2 .4-.6 1-1.1 1.6-1.4.2-.1.3-.2.5-.2l.3-.1.1-.1v-3.7c-3.4-.6-6.8-.9-10.2-1.2-3.4-.2-6.8-.3-10.2.2-3.4.5-6.8 1.1-10 2.2-.8.3-1.6.7-2.3 1.1-.7.4-1.5 1-1.9 1.9-.1.4-.2.8-.2 1.3zm.6-1.2c.3-.7 1-1.2 1.7-1.7.7-.4 1.5-.8 2.3-1 3.2-1.1 6.6-1.7 9.9-2.2 3.3-.5 6.8-.4 10.1-.3 3.4.2 6.8.5 10.2.8l-.1 2.2c0 .4 0 .8-.1 1.1v.2l-.2.1c-.2.1-.4.1-.5.2-.7.3-1.3.9-1.7 1.5-.4.6-.7 1.3-.8 2l-2.1.1c-.1-1.4-.4-2.8-1.1-4-.8-1.3-2.2-2.1-3.6-2.4-1.4-.4-2.8-.4-4.3-.4-1.4 0-2.8.1-4.2.3-2.8.3-5.6.8-8.3 1.6-1.3.4-2.7 1.1-3.8 2-.5.5-1 1.1-1.3 1.7-.3.6-.4 1.2-.5 1.9-.7-.3-1.2-.9-1.5-1.6-.4-.5-.3-1.4-.1-2.1z" fill="#070201" stroke-width="none" opacity="1"></path></g></g></g></g></g><rect id="svga-credit-rect" width="200" height="15" x="0" y="185" fill="#ecf0f1" opacity="0.5" style="display: none;"></rect><text id="svga-credit-text" font-family="Avenir Next, Roboto, Helvetica, Arial, sans-serif" font-size="10px" text-anchor="start" font-weight="400" size="10px" anchor="start" weight="400" fill="#333333" x="33.40447998046875" y="182.60824704170227" style="display: none;"><tspan id="SvgjsTspan3125" dy="13" x="33.40447998046875">Created on AvatarMaker.com</tspan></text></g></svg>